<mxfile host="Electron" agent="Mozilla/5.0 (Windows NT 10.0; Win64; x64) AppleWebKit/537.36 (KHTML, like Gecko) draw.io/26.0.16 Chrome/132.0.6834.196 Electron/34.2.0 Safari/537.36" version="26.0.16">
  <diagram name="Page-1" id="f8ale5ZUVRNKTRHcTlrK">
    <mxGraphModel dx="1034" dy="519" grid="1" gridSize="10" guides="1" tooltips="1" connect="1" arrows="1" fold="1" page="1" pageScale="1" pageWidth="827" pageHeight="1169" math="0" shadow="0">
      <root>
        <mxCell id="0" />
        <mxCell id="1" parent="0" />
        <mxCell id="PUIGUjOpfNblpB0iVNsH-1" value="" style="whiteSpace=wrap;html=1;aspect=fixed;" vertex="1" parent="1">
          <mxGeometry x="110" y="73" width="700" height="700" as="geometry" />
        </mxCell>
        <mxCell id="PUIGUjOpfNblpB0iVNsH-7" value="" style="rounded=0;whiteSpace=wrap;html=1;fillColor=light-dark(#4D4D4D,var(--ge-dark-color, #121212));" vertex="1" parent="1">
          <mxGeometry x="110" y="75" width="700" height="80" as="geometry" />
        </mxCell>
        <mxCell id="PUIGUjOpfNblpB0iVNsH-8" value="" style="rounded=1;whiteSpace=wrap;html=1;" vertex="1" parent="1">
          <mxGeometry x="120" y="87.5" width="80" height="40" as="geometry" />
        </mxCell>
        <mxCell id="PUIGUjOpfNblpB0iVNsH-9" value="Logo" style="text;html=1;align=center;verticalAlign=middle;whiteSpace=wrap;rounded=0;" vertex="1" parent="1">
          <mxGeometry x="130" y="90" width="60" height="35" as="geometry" />
        </mxCell>
        <mxCell id="PUIGUjOpfNblpB0iVNsH-11" value="" style="rounded=1;whiteSpace=wrap;html=1;" vertex="1" parent="1">
          <mxGeometry x="330" y="90" width="84" height="50" as="geometry" />
        </mxCell>
        <mxCell id="PUIGUjOpfNblpB0iVNsH-12" value="" style="rounded=1;whiteSpace=wrap;html=1;" vertex="1" parent="1">
          <mxGeometry x="420" y="90" width="90" height="50" as="geometry" />
        </mxCell>
        <mxCell id="PUIGUjOpfNblpB0iVNsH-13" value="" style="rounded=1;whiteSpace=wrap;html=1;" vertex="1" parent="1">
          <mxGeometry x="520" y="90" width="90" height="50" as="geometry" />
        </mxCell>
        <mxCell id="PUIGUjOpfNblpB0iVNsH-14" value="" style="rounded=1;whiteSpace=wrap;html=1;" vertex="1" parent="1">
          <mxGeometry x="620" y="90" width="90" height="50" as="geometry" />
        </mxCell>
        <mxCell id="PUIGUjOpfNblpB0iVNsH-15" value="" style="rounded=1;whiteSpace=wrap;html=1;fillColor=light-dark(#FFFF00,var(--ge-dark-color, #121212));" vertex="1" parent="1">
          <mxGeometry x="730" y="100" width="70" height="30" as="geometry" />
        </mxCell>
        <mxCell id="PUIGUjOpfNblpB0iVNsH-16" value="" style="rounded=1;whiteSpace=wrap;html=1;" vertex="1" parent="1">
          <mxGeometry x="240" y="90" width="80" height="50" as="geometry" />
        </mxCell>
        <mxCell id="PUIGUjOpfNblpB0iVNsH-17" value="" style="rounded=1;whiteSpace=wrap;html=1;fillColor=light-dark(#FF3333,var(--ge-dark-color, #121212));" vertex="1" parent="1">
          <mxGeometry x="120" y="250" width="220" height="120" as="geometry" />
        </mxCell>
        <mxCell id="PUIGUjOpfNblpB0iVNsH-18" value="" style="rounded=1;whiteSpace=wrap;html=1;fillColor=light-dark(#33FF33,var(--ge-dark-color, #121212));" vertex="1" parent="1">
          <mxGeometry x="350" y="250" width="220" height="120" as="geometry" />
        </mxCell>
        <mxCell id="PUIGUjOpfNblpB0iVNsH-19" value="" style="rounded=1;whiteSpace=wrap;html=1;fillColor=light-dark(#0000FF,var(--ge-dark-color, #121212));" vertex="1" parent="1">
          <mxGeometry x="580" y="250" width="220" height="120" as="geometry" />
        </mxCell>
        <mxCell id="PUIGUjOpfNblpB0iVNsH-20" value="" style="rounded=0;whiteSpace=wrap;html=1;fillColor=light-dark(#666666,var(--ge-dark-color, #121212));" vertex="1" parent="1">
          <mxGeometry x="110" y="740" width="700" height="40" as="geometry" />
        </mxCell>
        <mxCell id="PUIGUjOpfNblpB0iVNsH-21" value="&lt;b&gt;Footer&lt;/b&gt;" style="text;html=1;align=center;verticalAlign=middle;whiteSpace=wrap;rounded=0;" vertex="1" parent="1">
          <mxGeometry x="414" y="743" width="60" height="30" as="geometry" />
        </mxCell>
        <mxCell id="PUIGUjOpfNblpB0iVNsH-22" value="&lt;b&gt;Header and Navigation Bar&lt;/b&gt;" style="text;html=1;align=center;verticalAlign=middle;whiteSpace=wrap;rounded=0;" vertex="1" parent="1">
          <mxGeometry x="250" y="20" width="390" height="30" as="geometry" />
        </mxCell>
        <mxCell id="PUIGUjOpfNblpB0iVNsH-24" value="" style="endArrow=classic;html=1;rounded=0;exitX=0.783;exitY=-0.244;exitDx=0;exitDy=0;exitPerimeter=0;" edge="1" parent="1">
          <mxGeometry width="50" height="50" relative="1" as="geometry">
            <mxPoint x="375.3699999999999" y="40.17999999999995" as="sourcePoint" />
            <mxPoint x="330" y="87.5" as="targetPoint" />
          </mxGeometry>
        </mxCell>
        <mxCell id="PUIGUjOpfNblpB0iVNsH-26" value="" style="endArrow=classic;html=1;rounded=0;exitX=0.783;exitY=-0.244;exitDx=0;exitDy=0;exitPerimeter=0;entryX=0.63;entryY=0.079;entryDx=0;entryDy=0;entryPerimeter=0;" edge="1" parent="1" target="PUIGUjOpfNblpB0iVNsH-7">
          <mxGeometry width="50" height="50" relative="1" as="geometry">
            <mxPoint x="509.9999999999999" y="40.17999999999995" as="sourcePoint" />
            <mxPoint x="464.63" y="87.5" as="targetPoint" />
          </mxGeometry>
        </mxCell>
        <mxCell id="PUIGUjOpfNblpB0iVNsH-27" value="Main Hero Section" style="text;html=1;align=center;verticalAlign=middle;whiteSpace=wrap;rounded=0;" vertex="1" parent="1">
          <mxGeometry x="430" y="460" width="60" height="30" as="geometry" />
        </mxCell>
        <mxCell id="PUIGUjOpfNblpB0iVNsH-28" value="" style="endArrow=classic;html=1;rounded=0;entryX=0.5;entryY=1;entryDx=0;entryDy=0;" edge="1" parent="1" target="PUIGUjOpfNblpB0iVNsH-18">
          <mxGeometry width="50" height="50" relative="1" as="geometry">
            <mxPoint x="460" y="450" as="sourcePoint" />
            <mxPoint x="510" y="400" as="targetPoint" />
          </mxGeometry>
        </mxCell>
        <mxCell id="PUIGUjOpfNblpB0iVNsH-29" value="" style="endArrow=classic;html=1;rounded=0;entryX=0.75;entryY=1;entryDx=0;entryDy=0;" edge="1" parent="1" target="PUIGUjOpfNblpB0iVNsH-17">
          <mxGeometry width="50" height="50" relative="1" as="geometry">
            <mxPoint x="424" y="460" as="sourcePoint" />
            <mxPoint x="414" y="420" as="targetPoint" />
          </mxGeometry>
        </mxCell>
        <mxCell id="PUIGUjOpfNblpB0iVNsH-30" value="" style="endArrow=classic;html=1;rounded=0;" edge="1" parent="1" target="PUIGUjOpfNblpB0iVNsH-19">
          <mxGeometry width="50" height="50" relative="1" as="geometry">
            <mxPoint x="500" y="463" as="sourcePoint" />
            <mxPoint x="500" y="383" as="targetPoint" />
          </mxGeometry>
        </mxCell>
        <mxCell id="PUIGUjOpfNblpB0iVNsH-31" value="" style="ellipse;whiteSpace=wrap;html=1;" vertex="1" parent="1">
          <mxGeometry x="400" y="450" width="120" height="80" as="geometry" />
        </mxCell>
        <mxCell id="PUIGUjOpfNblpB0iVNsH-33" value="Main Hero Section" style="text;html=1;align=center;verticalAlign=middle;whiteSpace=wrap;rounded=0;" vertex="1" parent="1">
          <mxGeometry x="430" y="475" width="60" height="30" as="geometry" />
        </mxCell>
        <mxCell id="PUIGUjOpfNblpB0iVNsH-34" value="Home" style="text;html=1;align=center;verticalAlign=middle;whiteSpace=wrap;rounded=0;" vertex="1" parent="1">
          <mxGeometry x="250" y="100" width="60" height="30" as="geometry" />
        </mxCell>
        <mxCell id="PUIGUjOpfNblpB0iVNsH-35" value="About Us" style="text;html=1;align=center;verticalAlign=middle;whiteSpace=wrap;rounded=0;" vertex="1" parent="1">
          <mxGeometry x="342" y="100" width="60" height="30" as="geometry" />
        </mxCell>
        <mxCell id="PUIGUjOpfNblpB0iVNsH-36" value="EV &amp;amp; PHEV" style="text;html=1;align=center;verticalAlign=middle;whiteSpace=wrap;rounded=0;" vertex="1" parent="1">
          <mxGeometry x="430" y="100" width="60" height="30" as="geometry" />
        </mxCell>
        <mxCell id="PUIGUjOpfNblpB0iVNsH-37" value="Join Revolution" style="text;html=1;align=center;verticalAlign=middle;whiteSpace=wrap;rounded=0;" vertex="1" parent="1">
          <mxGeometry x="535" y="100" width="60" height="30" as="geometry" />
        </mxCell>
        <mxCell id="PUIGUjOpfNblpB0iVNsH-38" value="Contact" style="text;html=1;align=center;verticalAlign=middle;whiteSpace=wrap;rounded=0;" vertex="1" parent="1">
          <mxGeometry x="635" y="100" width="60" height="30" as="geometry" />
        </mxCell>
        <mxCell id="PUIGUjOpfNblpB0iVNsH-39" value="Login" style="text;html=1;align=center;verticalAlign=middle;whiteSpace=wrap;rounded=0;" vertex="1" parent="1">
          <mxGeometry x="730" y="97.5" width="60" height="30" as="geometry" />
        </mxCell>
      </root>
    </mxGraphModel>
  </diagram>
</mxfile>
